<svg xmlns="http://www.w3.org/2000/svg" viewBox="0 0 1200 800" fill="none">
  <!-- Background gradient effect -->
  <defs>
    <linearGradient id="cloudGrad" x1="0%" y1="0%" x2="100%" y2="100%">
      <stop offset="0%" style="stop-color:#e0f2fe;stop-opacity:1" />
      <stop offset="100%" style="stop-color:#f0f9ff;stop-opacity:1" />
    </linearGradient>
  </defs>
  <rect width="1200" height="800" fill="url(#cloudGrad)"/>
  
  <!-- Cloud migration illustration -->
  <g opacity="0.9">
    <!-- Large cloud (destination) -->
    <path d="M800 300 Q750 250 700 300 Q650 350 700 400 Q750 450 800 400 Q850 450 900 400 Q950 350 900 300 Q850 250 800 300 Z" 
          fill="#2563eb" stroke="#1e40af" stroke-width="3"/>
    
    <!-- Server/rack (source) -->
    <rect x="200" y="300" width="200" height="250" fill="#1e3a5f" stroke="#0f172a" stroke-width="3" rx="5"/>
    <rect x="220" y="320" width="160" height="20" fill="#2563eb" rx="2"/>
    <rect x="220" y="360" width="160" height="20" fill="#2563eb" rx="2"/>
    <rect x="220" y="400" width="160" height="20" fill="#2563eb" rx="2"/>
    <rect x="220" y="440" width="160" height="20" fill="#2563eb" rx="2"/>
    
    <!-- Arrow/migration path -->
    <path d="M400 425 Q550 350 700 350" stroke="#22c55e" stroke-width="6" fill="none" marker-end="url(#arrowhead)"/>
    <defs>
      <marker id="arrowhead" markerWidth="10" markerHeight="10" refX="9" refY="3" orient="auto">
        <polygon points="0 0, 10 3, 0 6" fill="#22c55e"/>
      </marker>
    </defs>
    
    <!-- Small clouds along path -->
    <circle cx="500" cy="320" r="25" fill="#93c5fd" opacity="0.7"/>
    <circle cx="600" cy="330" r="30" fill="#93c5fd" opacity="0.7"/>
    
    <!-- Data packets -->
    <rect x="450" y="340" width="40" height="20" fill="#22c55e" rx="3" opacity="0.8"/>
    <rect x="500" y="360" width="40" height="20" fill="#22c55e" rx="3" opacity="0.8"/>
    <rect x="550" y="340" width="40" height="20" fill="#22c55e" rx="3" opacity="0.8"/>
  </g>
  
  <!-- Text label -->
  <text x="600" y="650" font-family="Arial, sans-serif" font-size="48" font-weight="600" fill="#1e3a5f">Cloud Migration</text>
  <text x="600" y="700" font-family="Arial, sans-serif" font-size="32" fill="#4b5563">Small Business Solutions</text>
</svg>
