<svg xmlns="http://www.w3.org/2000/svg" viewBox="0 0 1200 800" fill="none">
  <!-- Background -->
  <rect width="1200" height="800" fill="#f0fdf4"/>
  
  <!-- School building -->
  <g opacity="0.9">
    <!-- Building base -->
    <rect x="300" y="400" width="600" height="300" fill="#22c55e" stroke="#15803d" stroke-width="3" rx="10"/>
    
    <!-- Roof -->
    <path d="M250 400 L600 250 L950 400 Z" fill="#15803d"/>
    
    <!-- Windows -->
    <rect x="400" y="500" width="80" height="100" fill="#ffffff" stroke="#15803d" stroke-width="2" rx="5"/>
    <rect x="520" y="500" width="80" height="100" fill="#ffffff" stroke="#15803d" stroke-width="2" rx="5"/>
    <rect x="640" y="500" width="80" height="100" fill="#ffffff" stroke="#15803d" stroke-width="2" rx="5"/>
    <rect x="760" y="500" width="80" height="100" fill="#ffffff" stroke="#15803d" stroke-width="2" rx="5"/>
    
    <!-- Door -->
    <rect x="560" y="550" width="100" height="150" fill="#ffffff" stroke="#15803d" stroke-width="3" rx="5"/>
    <circle cx="640" cy="625" r="5" fill="#15803d"/>
    
    <!-- Network icon overlay -->
    <g transform="translate(700, 200)">
      <circle cx="0" cy="0" r="40" fill="#2563eb" opacity="0.8"/>
      <circle cx="-30" cy="-30" r="25" fill="#1e3a5f" opacity="0.8"/>
      <circle cx="30" cy="-30" r="25" fill="#1e3a5f" opacity="0.8"/>
      <circle cx="-30" cy="30" r="25" fill="#1e3a5f" opacity="0.8"/>
      <circle cx="30" cy="30" r="25" fill="#1e3a5f" opacity="0.8"/>
      <line x1="-30" y1="-30" x2="0" y2="0" stroke="#ffffff" stroke-width="2"/>
      <line x1="30" y1="-30" x2="0" y2="0" stroke="#ffffff" stroke-width="2"/>
      <line x1="-30" y1="30" x2="0" y2="0" stroke="#ffffff" stroke-width="2"/>
      <line x1="30" y1="30" x2="0" y2="0" stroke="#ffffff" stroke-width="2"/>
    </g>
  </g>
  
  <!-- Text label -->
  <text x="600" y="750" font-family="Arial, sans-serif" font-size="48" font-weight="600" fill="#15803d">Education Network</text>
  <text x="600" y="790" font-family="Arial, sans-serif" font-size="32" fill="#4b5563">Infrastructure Setup</text>
</svg>
